<svg xmlns="http://www.w3.org/2000/svg" xmlns:xlink="http://www.w3.org/1999/xlink" width="27" height="16.8" viewBox="0 0 27 16.8">
  <defs>
    <filter id="Path_15" x="0" y="0" width="27" height="4.8" filterUnits="userSpaceOnUse">
      <feOffset dy="1" input="SourceAlpha"/>
      <feGaussianBlur stdDeviation="0.5" result="blur"/>
      <feFlood flood-opacity="0.149"/>
      <feComposite operator="in" in2="blur"/>
      <feComposite in="SourceGraphic"/>
    </filter>
    <filter id="Path_16" x="0" y="6" width="27" height="4.8" filterUnits="userSpaceOnUse">
      <feOffset dy="1" input="SourceAlpha"/>
      <feGaussianBlur stdDeviation="0.5" result="blur-2"/>
      <feFlood flood-opacity="0.149"/>
      <feComposite operator="in" in2="blur-2"/>
      <feComposite in="SourceGraphic"/>
    </filter>
    <filter id="Path_17" x="0" y="12" width="27" height="4.8" filterUnits="userSpaceOnUse">
      <feOffset dy="1" input="SourceAlpha"/>
      <feGaussianBlur stdDeviation="0.5" result="blur-3"/>
      <feFlood flood-opacity="0.149"/>
      <feComposite operator="in" in2="blur-3"/>
      <feComposite in="SourceGraphic"/>
    </filter>
  </defs>
  <g id="Estatic_Profile" data-name="Estatic Profile" transform="translate(-326.5 -31.5)">
    <g id="Hamburger_Icon" data-name="Hamburger Icon" transform="translate(328 32)">
      <g transform="matrix(1, 0, 0, 1, -1.5, -0.5)" filter="url(#Path_15)">
        <path id="Path_15-2" data-name="Path 15" d="M27.5,11.925H5.5a.957.957,0,0,1-1-.9h0a.957.957,0,0,1,1-.9h22a.957.957,0,0,1,1,.9h0A.957.957,0,0,1,27.5,11.925Z" transform="translate(-3 -9.63)" fill="#fff"/>
      </g>
      <g transform="matrix(1, 0, 0, 1, -1.5, -0.5)" filter="url(#Path_16)">
        <path id="Path_16-2" data-name="Path 16" d="M27.5,18.675H5.5a.957.957,0,0,1-1-.9h0a.957.957,0,0,1,1-.9h22a.957.957,0,0,1,1,.9h0A.957.957,0,0,1,27.5,18.675Z" transform="translate(-3 -10.38)" fill="#fff"/>
      </g>
      <g transform="matrix(1, 0, 0, 1, -1.5, -0.5)" filter="url(#Path_17)">
        <path id="Path_17-2" data-name="Path 17" d="M27.5,25.425H5.5a.957.957,0,0,1-1-.9h0a.957.957,0,0,1,1-.9h22a.957.957,0,0,1,1,.9h0A.957.957,0,0,1,27.5,25.425Z" transform="translate(-3 -11.13)" fill="#fff"/>
      </g>
    </g>
  </g>
</svg>
